<svg width="128" height="128" viewBox="0 0 128 128" fill="none" xmlns="http://www.w3.org/2000/svg">
<path d="M11.5033 128C17.7095 128 25.2621 123.32 33.951 114.09C39.2397 108.472 46.3163 105.25 53.3665 105.25H74.6337C81.7366 105.25 89.088 108.555 94.2992 114.09C103.111 123.45 110.371 128 116.497 128C119.921 128 127.897 126.175 127.999 109.273C128.104 91.9519 119.852 64.9912 107.4 52.4637C102.643 47.6775 97.5959 45.2508 92.3995 45.2508C85.8963 45.2508 82.8596 47.3225 80.1806 49.1505C78.1582 50.5302 76.2379 51.8399 72.1865 52.6009C73.8625 49.9515 75.25 46.7442 75.25 43.3755C75.25 35.4282 67.5338 28.3657 66.5003 27.4558C64.8546 25.9533 60.2502 20.8609 60.2502 16.8759C60.2502 12.9452 64.8586 7.99478 66.4741 6.56905C68.0283 5.20457 68.1845 2.83885 66.8221 1.28162C65.4581 -0.277107 63.0891 -0.434855 61.5306 0.928876C60.6319 1.71537 52.75 8.84377 52.75 16.8759C52.75 24.8673 60.5852 32.2149 61.4786 33.0264C61.4959 33.0419 61.5131 33.0574 61.5306 33.0727C63.1441 34.4844 67.7498 39.4076 67.7498 43.3753C67.7498 46.6812 64.4901 50.7082 62.4959 52.7502H56.6825C52.026 52.0199 49.9813 50.6252 47.8193 49.15C45.1404 47.322 42.1037 45.2503 35.6005 45.2503C30.4041 45.2503 25.3571 47.677 20.6 52.4632C8.14838 64.991 -0.104008 91.9516 0.000990397 109.272C0.103239 126.175 8.07888 128 11.5033 128ZM25.9194 57.7508C29.2171 54.4329 32.4745 52.7507 35.6007 52.7507C39.7892 52.7507 41.3022 53.7832 43.5926 55.3459C48.8078 58.9043 53.9292 60.2506 56.3985 60.2506H71.6015C74.1627 60.2506 79.2699 58.8511 84.4073 55.3459C86.6978 53.7832 88.2108 52.7507 92.3992 52.7507C95.5254 52.7507 98.7826 54.4329 102.081 57.7508C113.052 68.7887 120.593 93.7386 120.499 109.227C120.465 114.838 119.215 120.5 116.497 120.5C114.734 120.5 109.574 119.374 99.7599 108.949C93.0597 101.832 83.9016 97.75 74.6337 97.75H53.3665C44.2574 97.75 35.1903 101.832 28.4903 108.949C18.6762 119.374 13.3416 120.5 11.5036 120.5C8.78562 120.5 7.53489 114.838 7.50089 109.227C7.40689 93.7386 14.9483 68.7887 25.9194 57.7508Z" fill="white"/>
</svg>
