<svg width="34" height="33" viewBox="0 0 34 33" fill="none" xmlns="http://www.w3.org/2000/svg">
<path d="M18.0404 7.64062C18.8908 8.77877 19.3479 10.1425 19.3479 11.5412V12.8906C19.7961 12.8906 20.2313 12.7474 20.5846 12.4837C20.9378 12.22 21.1888 11.8511 21.2974 11.4354L21.4399 10.8906L21.8264 11.334C22.4496 12.0489 22.7878 12.9516 22.781 13.8821C22.7743 14.8127 22.4231 15.7108 21.7896 16.4174C21.5521 16.6821 21.4281 17.0228 21.442 17.3712C21.456 17.7197 21.607 18.0502 21.8649 18.2968C22.0088 18.4345 22.1816 18.5416 22.3718 18.6111C22.5621 18.6806 22.7655 18.7109 22.9688 18.7002C23.1721 18.6894 23.3707 18.6377 23.5518 18.5486C23.7329 18.4594 23.8922 18.3347 24.0194 18.1827L25.1009 16.8906L26.147 19.3906C26.6213 20.9021 26.6587 22.5083 26.2551 24.0385C25.8516 25.5687 25.0222 26.9659 23.8549 28.0818L23.723 28.2079C21.9264 29.9256 19.4895 30.8906 16.9486 30.8906H15.8814C14.2269 30.8906 12.6007 30.481 11.161 29.7017C9.72121 28.9224 8.51713 27.8 7.66591 26.4437C6.64666 24.8197 6.17907 22.9335 6.32754 21.0448C6.47601 19.1562 7.23323 17.358 8.49495 15.8978L12.7289 10.9979C13.1462 10.515 13.4143 9.93056 13.5033 9.31007C13.5922 8.68959 13.4984 8.05769 13.2324 7.48537C12.8948 6.75939 12.8366 5.94271 13.068 5.17967C13.2994 4.41663 13.8056 3.75637 14.497 3.31562L16.7329 1.89062V3.74007C16.7329 5.13875 17.1901 6.50248 18.0404 7.64062Z" fill="url(#paint0_linear_1_355)"/>
<path d="M20.5949 27.4788L20.5995 27.4744C21.413 26.6907 21.9935 25.714 22.281 24.6447C22.5685 23.5754 22.5529 22.4522 22.2356 21.3906L20.7141 22.8452C20.5706 22.9825 20.4001 23.0914 20.2124 23.1657C20.0249 23.24 19.8237 23.2783 19.6207 23.2783C19.4176 23.2783 19.2165 23.24 19.0289 23.1657C18.8413 23.0914 18.6708 22.9825 18.5273 22.8452C18.2544 22.5844 18.0933 22.2354 18.0758 21.8669C18.0582 21.4984 18.1854 21.1369 18.4325 20.8535C18.9412 20.27 19.2608 19.5573 19.3525 18.8028C19.444 18.0483 19.3036 17.2847 18.9483 16.6053L16.4825 11.8906L16.1034 15.8781C16.0579 16.3563 15.9118 16.8209 15.674 17.2438C15.4361 17.6668 15.1113 18.0394 14.7192 18.3395L12.5635 19.9882C11.9914 20.4258 11.5295 20.9808 11.212 21.6122C10.8946 22.2436 10.7298 22.9351 10.7298 23.6357V24.2031C10.7298 24.8879 10.8873 25.5642 11.1911 26.1844C11.4948 26.8045 11.9376 27.3532 12.4878 27.7915C13.3787 28.5012 14.5045 28.8849 15.664 28.874L17.1754 28.8597C18.4609 28.8474 19.6895 28.3512 20.5949 27.4788Z" fill="#FDD04A"/>
<path d="M7.84509 12.3906C7.70638 12.3906 7.57335 12.3379 7.47527 12.2442C7.37719 12.1504 7.32208 12.0232 7.32208 11.8906V10.8906C7.32208 10.758 7.37719 10.6308 7.47527 10.537C7.57335 10.4433 7.70638 10.3906 7.84509 10.3906C7.9838 10.3906 8.11683 10.4433 8.21491 10.537C8.31299 10.6308 8.36809 10.758 8.36809 10.8906V11.8906C8.36809 12.0232 8.31299 12.1504 8.21491 12.2442C8.11683 12.3379 7.9838 12.3906 7.84509 12.3906Z" fill="#FE691E"/>
<path d="M9.41411 9.89062C9.2754 9.89062 9.14237 9.83794 9.04429 9.74417C8.94621 9.65041 8.89111 9.52323 8.89111 9.39062V8.39062C8.89111 8.25802 8.94621 8.13084 9.04429 8.03708C9.14237 7.94331 9.2754 7.89062 9.41411 7.89062C9.55282 7.89062 9.68586 7.94331 9.78393 8.03708C9.88201 8.13084 9.93712 8.25802 9.93712 8.39062V9.39062C9.93712 9.52323 9.88201 9.65041 9.78393 9.74417C9.68586 9.83794 9.55282 9.89062 9.41411 9.89062Z" fill="#FF8D54"/>
<path d="M7.32209 7.89062C7.18337 7.89062 7.05034 7.83794 6.95227 7.74417C6.85418 7.65041 6.79908 7.52323 6.79908 7.39062V6.39062C6.79908 6.25802 6.85418 6.13084 6.95227 6.03708C7.05034 5.94331 7.18337 5.89062 7.32209 5.89062C7.4608 5.89062 7.59383 5.94331 7.6919 6.03708C7.78999 6.13084 7.84509 6.25802 7.84509 6.39062V7.39062C7.84509 7.52323 7.78999 7.65041 7.6919 7.74417C7.59383 7.83794 7.4608 7.89062 7.32209 7.89062Z" fill="#FFB895"/>
<path d="M25.6273 13.8906C25.4886 13.8906 25.3555 13.8379 25.2574 13.7442C25.1594 13.6504 25.1043 13.5232 25.1043 13.3906V12.3906C25.1043 12.258 25.1594 12.1308 25.2574 12.037C25.3555 11.9433 25.4886 11.8906 25.6273 11.8906C25.766 11.8906 25.8991 11.9433 25.9972 12.037C26.0952 12.1308 26.1503 12.258 26.1503 12.3906V13.3906C26.1503 13.5232 26.0952 13.6504 25.9972 13.7442C25.8991 13.8379 25.766 13.8906 25.6273 13.8906Z" fill="#FE691E"/>
<path d="M24.0583 10.3906C23.9196 10.3906 23.7865 10.3379 23.6884 10.2442C23.5904 10.1504 23.5353 10.0232 23.5353 9.89062V8.89062C23.5353 8.75802 23.5904 8.63084 23.6884 8.53708C23.7865 8.44331 23.9196 8.39062 24.0583 8.39062C24.197 8.39062 24.33 8.44331 24.4282 8.53708C24.5262 8.63084 24.5813 8.75802 24.5813 8.89062V9.89062C24.5813 10.0232 24.5262 10.1504 24.4282 10.2442C24.33 10.3379 24.197 10.3906 24.0583 10.3906Z" fill="#FF8D54"/>
<path d="M26.1503 8.89062C26.0116 8.89062 25.8786 8.83794 25.7804 8.74417C25.6824 8.65041 25.6273 8.52323 25.6273 8.39062V6.89062C25.6273 6.75802 25.6824 6.63084 25.7804 6.53708C25.8786 6.44331 26.0116 6.39062 26.1503 6.39062C26.289 6.39062 26.4221 6.44331 26.5202 6.53708C26.6182 6.63084 26.6733 6.75802 26.6733 6.89062V8.39062C26.6733 8.52323 26.6182 8.65041 26.5202 8.74417C26.4221 8.83794 26.289 8.89062 26.1503 8.89062Z" fill="#FFB895"/>
<defs>
<linearGradient id="paint0_linear_1_355" x1="16.4165" y1="1.89062" x2="16.4165" y2="30.8906" gradientUnits="userSpaceOnUse">
<stop stop-color="#FF9159"/>
<stop offset="0.6875" stop-color="#FF7631"/>
<stop offset="1" stop-color="#FF6A1F"/>
</linearGradient>
</defs>
</svg>
